<?xml version="1.0" encoding="utf-8"?>
<!-- Generator: Adobe Illustrator 28.1.0, SVG Export Plug-In . SVG Version: 6.00 Build 0)  -->
<svg version="1.1" id="Layer_1" xmlns="http://www.w3.org/2000/svg" xmlns:xlink="http://www.w3.org/1999/xlink" x="0px" y="0px"
	 viewBox="0 0 500 140.3" style="enable-background:new 0 0 500 140.3;" xml:space="preserve">
<style type="text/css">
	.st0{enable-background:new    ;}
	.st1{fill:#FF9800;}
	.st2{font-family:'charlotte';}
	.st3{font-size:81.9683px;}
</style>
<g>
	<g class="st0">
		<path class="st1" d="M193.2,51.2V20.1h8.6v31.1H193.2z M200.3,51.2v-6.3h5.7c1.1,0,2-0.3,2.7-0.9c0.7-0.6,1-1.4,1-2.5
			c0-0.7-0.2-1.3-0.5-1.8s-0.7-0.9-1.3-1.2c-0.5-0.3-1.2-0.4-1.9-0.4h-5.7v-6h5.3c0.9,0,1.7-0.2,2.3-0.7c0.6-0.5,0.9-1.2,0.9-2.2
			c0-1-0.3-1.7-0.9-2.2c-0.6-0.5-1.4-0.7-2.3-0.7h-5.3v-6.3h7.8c1.9,0,3.5,0.4,5,1.1c1.4,0.7,2.5,1.7,3.3,2.9
			c0.8,1.2,1.2,2.7,1.2,4.3c0,2.2-0.8,4-2.4,5.4c-1.6,1.4-3.9,2.2-6.9,2.4l-0.1-3c3.3,0.2,5.8,1.1,7.6,2.7c1.7,1.6,2.6,3.7,2.6,6.2
			c0,1.8-0.5,3.4-1.4,4.8c-0.9,1.4-2.2,2.5-3.8,3.2c-1.6,0.8-3.5,1.2-5.7,1.2H200.3z"/>
		<path class="st1" d="M221,51.2V20.1h8.7v31.1H221z"/>
		<path class="st1" d="M232,27.5v-7.4h27.4v7.4H232z M241.3,51.2V20.1h8.7v31.1H241.3z"/>
	</g>
</g>
<g>
	<g class="st0">
		<path class="st1" d="M193.2,103.6V72.5h6.3l11.6,16.9h-2.8l11.5-16.9h6.3v31.1h-8.6V86.8l1.3,0.3l-6.3,9.1h-5.6l-6.3-9.1l1.2-0.3
			v16.8H193.2z"/>
		<path class="st1" d="M243.4,104.1c-2.7,0-5.1-0.6-7.2-1.7c-2-1.1-3.6-2.7-4.8-4.6c-1.1-2-1.7-4.2-1.7-6.8V72.5h8.7v19.3
			c0,1,0.2,1.8,0.7,2.5c0.4,0.7,1,1.2,1.8,1.6c0.7,0.4,1.6,0.5,2.5,0.5c0.9,0,1.8-0.2,2.5-0.5c0.7-0.4,1.3-0.9,1.7-1.6
			c0.4-0.7,0.6-1.5,0.6-2.5V72.5h8.8V91c0,2.6-0.6,4.8-1.7,6.8c-1.1,2-2.7,3.5-4.7,4.6C248.5,103.6,246.2,104.1,243.4,104.1z"/>
		<path class="st1" d="M276,104.1c-2.4,0-4.6-0.4-6.7-1.2s-3.8-1.9-5.4-3.4c-1.5-1.5-2.7-3.2-3.6-5.1c-0.9-2-1.3-4.1-1.3-6.4
			c0-2.3,0.4-4.5,1.3-6.4c0.9-1.9,2.1-3.6,3.6-5.1c1.5-1.4,3.3-2.5,5.3-3.3c2-0.8,4.2-1.2,6.6-1.2c2.4,0,4.6,0.4,6.6,1.1
			c2,0.8,3.8,1.8,5.2,3.1l-5.8,5.9c-0.7-0.8-1.5-1.4-2.6-1.8s-2.2-0.7-3.5-0.7c-1.2,0-2.2,0.2-3.2,0.6c-1,0.4-1.8,0.9-2.5,1.7
			c-0.7,0.7-1.2,1.6-1.6,2.6s-0.6,2.2-0.6,3.5c0,1.3,0.2,2.5,0.6,3.5s0.9,1.9,1.6,2.6c0.7,0.7,1.5,1.3,2.5,1.7c1,0.4,2,0.6,3.2,0.6
			c1.3,0,2.5-0.2,3.5-0.6c1-0.4,1.9-1,2.7-1.8l5.9,5.9c-1.5,1.3-3.3,2.4-5.2,3.1S278.5,104.1,276,104.1z"/>
		<path class="st1" d="M290,103.6V72.5h8.7v31.1H290z M294.7,91.4v-7.2h17.4v7.2H294.7z M308.7,103.6V72.5h8.7v31.1H308.7z"/>
		<path class="st1" d="M343.9,104.1c-2.4,0-4.6-0.4-6.7-1.2s-3.8-1.9-5.4-3.4c-1.5-1.5-2.7-3.2-3.6-5.1c-0.9-2-1.3-4.1-1.3-6.4
			c0-2.3,0.4-4.5,1.3-6.4c0.9-1.9,2.1-3.6,3.6-5.1c1.5-1.4,3.3-2.5,5.3-3.3c2-0.8,4.2-1.2,6.6-1.2c2.4,0,4.6,0.4,6.6,1.1
			c2,0.8,3.8,1.8,5.2,3.1l-5.8,5.9c-0.7-0.8-1.5-1.4-2.6-1.8c-1-0.4-2.2-0.7-3.5-0.7c-1.2,0-2.2,0.2-3.2,0.6c-1,0.4-1.8,0.9-2.5,1.7
			s-1.2,1.6-1.6,2.6c-0.4,1-0.6,2.2-0.6,3.5c0,1.3,0.2,2.5,0.6,3.5c0.4,1,0.9,1.9,1.6,2.6c0.7,0.7,1.5,1.3,2.5,1.7
			c1,0.4,2,0.6,3.2,0.6c1.3,0,2.5-0.2,3.5-0.6c1-0.4,1.9-1,2.7-1.8l5.9,5.9c-1.5,1.3-3.3,2.4-5.2,3.1
			C348.8,103.8,346.5,104.1,343.9,104.1z"/>
		<path class="st1" d="M373.3,104.2c-2.4,0-4.7-0.4-6.7-1.2c-2.1-0.8-3.8-1.9-5.4-3.4c-1.5-1.5-2.7-3.2-3.6-5.2
			c-0.8-2-1.3-4.1-1.3-6.4c0-2.3,0.4-4.5,1.2-6.4c0.8-1.9,2-3.7,3.5-5.1c1.5-1.5,3.3-2.6,5.3-3.4s4.3-1.2,6.7-1.2
			c2.4,0,4.7,0.4,6.7,1.2s3.8,1.9,5.3,3.4c1.5,1.5,2.7,3.2,3.5,5.1c0.8,2,1.2,4.1,1.2,6.4c0,2.3-0.4,4.4-1.2,6.4
			c-0.8,2-2,3.7-3.5,5.2c-1.5,1.5-3.3,2.6-5.3,3.4C378,103.8,375.7,104.2,373.3,104.2z M373.2,96.5c1.6,0,3-0.3,4.2-1
			c1.2-0.7,2.1-1.7,2.8-3c0.6-1.3,1-2.8,1-4.5c0-1.3-0.2-2.4-0.5-3.5c-0.4-1-0.9-1.9-1.6-2.7s-1.5-1.3-2.5-1.7
			c-1-0.4-2.1-0.6-3.3-0.6c-1.6,0-3,0.3-4.2,1c-1.2,0.7-2.1,1.7-2.8,2.9c-0.6,1.3-1,2.8-1,4.5c0,1.3,0.2,2.5,0.5,3.5
			s0.9,1.9,1.6,2.7s1.5,1.3,2.5,1.7C370.9,96.3,372,96.5,373.2,96.5z"/>
		<path class="st1" d="M396.6,104.1c-1.1,0-2-0.4-2.6-1.1s-1-1.6-1-2.6c0-1,0.3-1.9,1-2.6c0.7-0.7,1.5-1,2.6-1c1,0,1.9,0.3,2.6,1
			c0.7,0.7,1,1.5,1,2.6c0,1-0.3,1.9-1,2.6C398.5,103.7,397.6,104.1,396.6,104.1z"/>
	</g>
</g>
<g>
	<g class="st0">
	</g>
</g>
<g>
	<g>
		<g>
			<path class="st1" d="M400.4,69.1c-0.2-0.4-0.4-0.8-0.7-1.1c-0.3-0.3-0.7-0.6-1.1-0.7c-0.8-0.3-1.8-0.3-2.6,0
				c-0.4,0.2-0.8,0.4-1.1,0.7c-0.3,0.3-0.6,0.7-0.7,1.1c-0.4,0.8-0.4,1.8,0,2.6c0.5,1.3,1.8,2.1,3.1,2.1c0.5,0,0.9-0.1,1.3-0.3
				c0.4-0.2,0.8-0.4,1.1-0.7c0.3-0.3,0.6-0.7,0.7-1.1C400.8,70.9,400.8,70,400.4,69.1z M399.4,71.7c-0.2,0.4-0.5,0.6-0.9,0.8
				c-0.4,0.2-0.8,0.3-1.2,0.3c-0.4,0-0.9-0.1-1.2-0.3c-0.3-0.2-0.6-0.5-0.9-0.9c-0.5-0.8-0.5-1.7,0-2.5c0.2-0.3,0.5-0.6,0.9-0.9
				c0.8-0.4,1.7-0.4,2.5,0c0.4,0.2,0.7,0.5,0.9,0.9C399.9,70,399.9,71,399.4,71.7z"/>
			<path class="st1" d="M397.3,73.8L397.3,73.8L397.3,73.8z"/>
		</g>
	</g>
	<g>
		<g>
			<path class="st1" d="M396.1,71.9v-3.1h1.5c0.2,0,0.4,0,0.6,0.1s0.3,0.2,0.4,0.4c0.1,0.2,0.1,0.4,0.1,0.6s0,0.4-0.2,0.6
				c-0.1,0.2-0.2,0.3-0.4,0.3c-0.2,0.1-0.4,0.1-0.6,0.1h-1v-0.6h0.9c0.1,0,0.2,0,0.3-0.1c0.1-0.1,0.1-0.2,0.1-0.3
				c0-0.1,0-0.2-0.1-0.3c-0.1-0.1-0.2-0.1-0.3-0.1h-0.5V72L396.1,71.9z"/>
			<polygon class="st1" points="398.1,70.5 398.8,71.9 397.8,71.9 397.2,70.5 			"/>
		</g>
	</g>
</g>
<g>
	<text transform="matrix(1 0 0 1 90.6079 110.131)" class="st1 st2 st3">A</text>
</g>
</svg>
